<?xml version="1.0" encoding="UTF-8"?>
<!-- Generated by Pixelmator Pro 3.5.11 -->
<svg width="120" height="120" viewBox="0 0 120 120" xmlns="http://www.w3.org/2000/svg">
    <path id="Halbkreis" fill="#000000" fill-rule="evenodd" stroke="none" d="M 23 60 L 23 60 C 23 71.034653 23.338238 86.221024 31 93 C 37.52668 98.774689 50.600128 97 60 97 C 69.399872 97 79.015976 98.882584 87 94 C 95.72757 88.662704 97 71.034653 97 60 L 23 60 Z"/>
    <path id="Abgerundete-Ecke" fill="#000000" fill-rule="evenodd" stroke="none" d="M 23 61 C 33.76952 50.230484 47.384758 32.25 60 32 C 72.615242 31.75 85.230484 49.230476 96 60 L 89.441864 60.558136 C 80.585815 51.702087 69.964203 40.710251 60 41 C 50.426548 41.278389 39.508755 52.491249 31 61 Z"/>
</svg>
