<?xml version="1.0" encoding="UTF-8"?>
<!-- Generated by Pixelmator Pro 3.5.11 -->
<svg width="500" height="500" viewBox="0 0 500 500" xmlns="http://www.w3.org/2000/svg">
    <g id="Burger-Men">
        <g id="Gruppe">
            <g id="Gradient"/>
            <g id="monochrome">
                <path id="path1" fill="#000000" fill-rule="evenodd" stroke="none" d="M 35 360.833313 C 35 373.259735 45.073593 383.333344 57.5 383.333344 L 440.833344 383.333344 C 453.259735 383.333344 463.333344 373.259735 463.333344 360.833313 C 463.333344 348.406921 453.259735 338.333313 440.833344 338.333313 L 57.5 338.333313 C 45.073593 338.333313 35 348.406921 35 360.833313 Z"/>
                <path id="path2" fill="#000000" fill-rule="evenodd" stroke="none" d="M 35 250.833328 C 35 263.259735 45.073593 273.333313 57.5 273.333313 L 440.833344 273.333313 C 453.259735 273.333313 463.333344 263.259735 463.333344 250.833328 C 463.333344 238.406921 453.259735 228.333344 440.833344 228.333344 L 57.5 228.333344 C 45.073593 228.333344 35 238.406921 35 250.833328 Z"/>
                <path id="path3" fill="#000000" fill-rule="evenodd" stroke="none" d="M 35 139.166656 C 35 151.593079 45.073593 161.666656 57.5 161.666656 L 440.833344 161.666656 C 453.259735 161.666656 463.333344 151.593079 463.333344 139.166656 C 463.333344 126.740265 453.259735 116.666656 440.833344 116.666656 L 57.5 116.666656 C 45.073593 116.666656 35 126.740265 35 139.166656 Z"/>
            </g>
        </g>
    </g>
</svg>
