<?xml version="1.0" encoding="UTF-8"?>
<!-- Generated by Pixelmator Pro 3.5.11 -->
<svg width="32" height="32" viewBox="0 0 32 32" xmlns="http://www.w3.org/2000/svg">
    <path id="Form" fill="#f7ba00" fill-rule="evenodd" stroke="none" d="M 8.431641 27.542969 L 8.431641 18.726563 L 7.25 19.816406 L 4.160156 16.726563 L 15.884766 5.003906 L 18.427734 7.548828 L 18.792969 7.548828 L 18.792969 4.640625 L 23.335938 4.640625 L 23.335938 12.455078 L 27.607422 16.726563 L 24.425781 19.816406 L 23.335938 18.726563 L 23.335938 27.542969 L 8.431641 27.542969 Z M 16.001953 24.75 C 18.500816 24.75 20.763496 23.275658 21.771484 20.988281 C 21.997972 20.988281 22.104422 20.850513 22.130859 20.78125 C 23.168961 18.050346 22.277697 14.960978 19.943359 13.205078 C 17.609047 11.449171 14.394934 11.449253 12.060547 13.205078 C 9.72616 14.960899 8.833067 18.050314 9.871094 20.78125 C 9.897531 20.850569 10.010189 20.988281 10.230469 20.988281 C 11.238483 23.275658 13.503088 24.75 16.001953 24.75 Z M 16.011719 24.34375 C 13.72745 24.347469 11.646263 23.030699 10.669922 20.964844 C 11.409451 20.807133 11.386734 19.818359 12.064453 19.818359 C 12.980598 19.818359 13.042638 23.123047 14.457031 23.123047 C 15.723505 23.123047 15.678846 20.783203 16.900391 20.783203 C 17.945862 20.783203 18.020088 22.105469 18.630859 22.105469 C 19.241608 22.105469 19.34362 20.224609 20.259766 20.224609 C 20.83457 20.224609 20.962746 20.79385 21.341797 20.949219 C 20.372208 23.018253 18.295988 24.340025 16.011719 24.34375 Z M 16.001953 20.224609 C 15.019281 20.224609 14.222656 19.428362 14.222656 18.445313 C 14.222656 17.462265 15.019281 16.664063 16.001953 16.664063 C 16.984648 16.664063 17.78125 17.462265 17.78125 18.445313 C 17.78125 19.428362 16.984648 20.224609 16.001953 20.224609 Z M 19.564453 19.564453 C 19.500257 19.564453 19.437647 19.53923 19.388672 19.490234 L 18.820313 18.921875 C 18.722338 18.823879 18.722338 18.664406 18.820313 18.566406 C 18.918264 18.468412 19.077805 18.468412 19.175781 18.566406 L 19.742188 19.134766 C 19.840139 19.232761 19.840139 19.392235 19.742188 19.490234 C 19.693199 19.53923 19.628649 19.564453 19.564453 19.564453 Z M 21.644531 19.308594 C 21.504158 19.308594 21.390625 19.19512 21.390625 19.054688 C 21.390625 18.914249 21.504158 18.800781 21.644531 18.800781 C 21.784931 18.800781 21.898438 18.914249 21.898438 19.054688 C 21.898438 19.19512 21.784931 19.308594 21.644531 19.308594 Z M 12.240234 18.800781 C 12.09986 18.800781 11.984375 18.687307 11.984375 18.546875 C 11.984375 18.406437 12.09986 18.292969 12.240234 18.292969 C 12.380633 18.292969 12.494141 18.406437 12.494141 18.546875 C 12.494141 18.687307 12.380633 18.800781 12.240234 18.800781 Z M 20.826172 18.189453 C 20.762169 18.189453 20.699228 18.164085 20.650391 18.115234 C 20.552736 18.017538 20.552736 17.859421 20.650391 17.761719 L 21.216797 17.195313 C 21.314474 17.09763 21.472635 17.09763 21.570313 17.195313 C 21.617254 17.242245 21.642578 17.306658 21.642578 17.373047 C 21.642578 17.43943 21.617254 17.501896 21.570313 17.548828 L 21.003906 18.115234 C 20.95508 18.164085 20.890175 18.189453 20.826172 18.189453 Z M 10.609375 18.037109 C 10.545372 18.037109 10.48048 18.011742 10.431641 17.962891 C 10.333987 17.865196 10.333987 17.707077 10.431641 17.609375 L 10.998047 17.042969 C 11.095725 16.945286 11.253883 16.945286 11.351563 17.042969 C 11.398502 17.089901 11.423828 17.154314 11.423828 17.220703 C 11.423828 17.287085 11.398502 17.34955 11.351563 17.396484 L 10.785156 17.962891 C 10.736329 18.011742 10.673378 18.037109 10.609375 18.037109 Z M 13.058594 17.326172 C 12.994398 17.326172 12.929834 17.300949 12.880859 17.251953 L 12.3125 16.683594 C 12.214523 16.585602 12.214523 16.428078 12.3125 16.330078 C 12.410451 16.232082 12.569991 16.232082 12.667969 16.330078 L 13.234375 16.898438 C 13.332327 16.996431 13.332327 17.153954 13.234375 17.251953 C 13.185387 17.300949 13.122789 17.326172 13.058594 17.326172 Z M 18.289063 16.867188 C 18.148687 16.867188 18.035156 16.753714 18.035156 16.613281 C 18.035156 16.472841 18.148687 16.359375 18.289063 16.359375 L 19.103516 16.359375 C 19.243916 16.359375 19.357422 16.472841 19.357422 16.613281 C 19.357422 16.753714 19.243916 16.867188 19.103516 16.867188 L 18.289063 16.867188 Z M 20.169922 16.003906 C 20.029547 16.003906 19.916016 15.89043 19.916016 15.75 L 19.916016 14.935547 C 19.916016 14.795109 20.029547 14.681641 20.169922 14.681641 C 20.31032 14.681641 20.423828 14.795109 20.423828 14.935547 L 20.423828 15.75 C 20.423828 15.89043 20.31032 16.003906 20.169922 16.003906 Z M 15.492188 15.75 C 15.351813 15.75 15.238281 15.634573 15.238281 15.494141 C 15.238281 15.353703 15.351813 15.240234 15.492188 15.240234 C 15.632587 15.240234 15.748047 15.353703 15.748047 15.494141 C 15.748047 15.634573 15.632587 15.75 15.492188 15.75 Z M 11.679688 15.341797 C 11.539312 15.341797 11.425781 15.228323 11.425781 15.087891 C 11.425781 14.947453 11.539312 14.833984 11.679688 14.833984 C 11.820086 14.833984 11.933594 14.947453 11.933594 15.087891 C 11.933594 15.228323 11.820086 15.341797 11.679688 15.341797 Z M 13.052734 15.240234 C 12.91236 15.240234 12.798828 15.12676 12.798828 14.986328 L 12.798828 14.171875 C 12.798828 14.031437 12.91236 13.917969 13.052734 13.917969 C 13.193134 13.917969 13.306641 14.031437 13.306641 14.171875 L 13.306641 14.986328 C 13.306641 15.12676 13.193134 15.240234 13.052734 15.240234 Z M 18.548828 14.580078 C 18.484632 14.580078 18.420069 14.554857 18.371094 14.505859 L 17.802734 13.9375 C 17.70476 13.839506 17.70476 13.681984 17.802734 13.583984 C 17.900688 13.485989 18.060226 13.485989 18.158203 13.583984 L 18.726563 14.150391 C 18.824514 14.248384 18.824514 14.40786 18.726563 14.505859 C 18.677574 14.554857 18.613024 14.580078 18.548828 14.580078 Z M 15.183594 14.121094 C 15.119591 14.121094 15.056651 14.095726 15.007813 14.046875 C 14.910158 13.949179 14.910158 13.791059 15.007813 13.693359 L 15.572266 13.126953 C 15.669945 13.029268 15.828101 13.029268 15.925781 13.126953 C 15.972721 13.173885 16 13.238298 16 13.304688 C 16 13.371071 15.972721 13.433537 15.925781 13.480469 L 15.361328 14.046875 C 15.312502 14.095726 15.247597 14.121094 15.183594 14.121094 Z"/>
    <path id="Schssel" fill="#74fbea" fill-rule="evenodd" stroke="none" d="M 14.35983 24.639999 C 14.247313 24.639999 14.156099 24.548786 14.156099 24.43627 L 14.156099 24.028807 C 11.570549 23.369278 9.816629 21.36034 9.639078 18.935534 L 9.52122 18.935534 C 9.464961 18.935534 9.419354 18.889927 9.419354 18.833668 L 9.419354 18.426207 C 9.419354 18.369947 9.464961 18.324341 9.52122 18.324341 L 22.458134 18.324341 C 22.514393 18.324341 22.559999 18.369947 22.559999 18.426207 L 22.559999 18.833668 C 22.559999 18.889927 22.514393 18.935534 22.458134 18.935534 L 22.340277 18.935534 C 22.162725 21.36034 20.408806 23.369278 17.823256 24.028807 L 17.823256 24.43627 C 17.823256 24.548786 17.732042 24.639999 17.619524 24.639999 L 14.35983 24.639999 Z"/>
    <path id="Donut" fill="#000000" fill-rule="evenodd" stroke="none" d="M 14.392756 16.560186 C 14.382443 16.587208 14.340736 16.640594 14.252382 16.640594 C 13.859158 17.532919 12.976288 18.108768 12.001462 18.108768 C 11.026635 18.108768 10.143775 17.532919 9.750541 16.640594 C 9.664608 16.640594 9.62047 16.587149 9.610157 16.560106 C 9.205215 15.494747 9.553333 14.289898 10.463995 13.60494 C 11.374657 12.919979 12.628372 12.919998 13.539005 13.60499 C 14.449648 14.28998 14.797728 15.494841 14.392756 16.560186 Z M 10.187429 15.101849 C 10.149324 15.063742 10.087562 15.063742 10.049457 15.101849 L 9.828678 15.322702 C 9.790583 15.360817 9.790583 15.422611 9.828678 15.460724 C 9.866784 15.498838 9.928555 15.498838 9.966651 15.460724 L 10.187429 15.239933 C 10.205741 15.221624 10.216025 15.196789 10.216025 15.170893 C 10.216025 15.144993 10.205741 15.120157 10.187429 15.101849 Z M 10.315758 14.240026 C 10.260996 14.240026 10.216597 14.284437 10.216597 14.339224 C 10.216597 14.394007 10.260996 14.438419 10.315758 14.438419 C 10.370528 14.438419 10.414918 14.394007 10.414918 14.339224 C 10.414918 14.284437 10.370528 14.240026 10.315758 14.240026 Z M 10.434751 15.688303 C 10.434751 15.743088 10.47915 15.7875 10.533911 15.7875 C 10.588682 15.7875 10.633072 15.743088 10.633072 15.688303 C 10.633072 15.633518 10.588682 15.589106 10.533911 15.589106 C 10.47915 15.589106 10.434751 15.633518 10.434751 15.688303 Z M 10.950386 13.982113 C 10.950386 13.927328 10.905996 13.882917 10.851226 13.882917 C 10.796464 13.882917 10.752065 13.927328 10.752065 13.982113 L 10.752065 14.299543 C 10.752065 14.354328 10.796464 14.398741 10.851226 14.398741 C 10.905996 14.398741 10.950386 14.354328 10.950386 14.299543 L 10.950386 13.982113 Z M 10.922372 15.045071 L 10.700945 14.823563 C 10.662724 14.785334 10.600767 14.785334 10.562555 14.823563 C 10.524334 14.861794 10.524334 14.923775 10.562555 14.962002 L 10.783982 15.18351 C 10.822194 15.221739 10.884151 15.221739 10.922372 15.18351 C 10.960584 15.145279 10.960584 15.083298 10.922372 15.045071 Z M 10.465855 16.184288 C 10.20147 16.184288 10.209876 16.57058 9.92138 16.632105 C 10.302258 17.438011 11.114069 17.951439 12.00518 17.949987 C 12.896291 17.948534 13.706436 17.432465 14.084681 16.625319 C 13.93681 16.564709 13.886795 16.343004 13.66256 16.343004 C 13.305164 16.343004 13.265393 17.077063 13.027137 17.077063 C 12.78887 17.077063 12.759915 16.561237 12.352069 16.561237 C 11.875535 16.561237 11.893091 17.47385 11.399031 17.47385 C 10.847265 17.47385 10.82325 16.184288 10.465855 16.184288 Z M 11.972323 13.574215 C 11.934218 13.536106 11.872456 13.536106 11.834351 13.574215 L 11.613572 13.795069 C 11.575477 13.833183 11.575477 13.894978 11.613572 13.933088 C 11.651678 13.971203 11.713449 13.971203 11.751545 13.933088 L 11.972323 13.712297 C 11.990635 13.693989 12.000919 13.669153 12.000919 13.643257 C 12.000919 13.617359 11.990635 13.592524 11.972323 13.574215 Z M 11.704008 14.497938 C 11.704008 14.552723 11.748408 14.597136 11.803169 14.597136 C 11.85794 14.597136 11.902329 14.552723 11.902329 14.497938 C 11.902329 14.443153 11.85794 14.398741 11.803169 14.398741 C 11.748408 14.398741 11.704008 14.443153 11.704008 14.497938 Z M 12.001491 14.954245 C 11.618143 14.954245 11.307365 15.265129 11.307365 15.648624 C 11.307365 16.03212 11.618143 16.343004 12.001491 16.343004 C 12.384848 16.343004 12.695616 16.03212 12.695616 15.648624 C 12.695616 15.265129 12.384848 14.954245 12.001491 14.954245 Z M 13.064244 13.973742 L 12.842817 13.752234 C 12.804596 13.714005 12.74264 13.714005 12.704429 13.752234 C 12.666206 13.790464 12.666206 13.852446 12.704429 13.890675 L 12.925855 14.112181 C 12.964067 14.15041 13.026023 14.15041 13.064244 14.112181 C 13.102456 14.073952 13.102456 14.011969 13.064244 13.973742 Z M 13.211252 14.835209 L 12.893938 14.835209 C 12.839176 14.835209 12.794777 14.87962 12.794777 14.934406 C 12.794777 14.989189 12.839176 15.033604 12.893938 15.033604 L 13.211252 15.033604 C 13.266023 15.033604 13.310413 14.989189 13.310413 14.934406 C 13.310413 14.87962 13.266023 14.835209 13.211252 14.835209 Z M 13.460888 15.918005 L 13.239461 15.696497 C 13.20124 15.658268 13.139283 15.658268 13.101071 15.696497 C 13.06285 15.734728 13.06285 15.796709 13.101071 15.834936 L 13.322498 16.056444 C 13.36071 16.094673 13.422666 16.094673 13.460888 16.056444 C 13.499099 16.018213 13.499099 15.956232 13.460888 15.918005 Z M 13.726888 14.279705 C 13.726888 14.224918 13.682498 14.180508 13.627728 14.180508 C 13.572967 14.180508 13.528566 14.224918 13.528566 14.279705 L 13.528566 14.597136 C 13.528566 14.651918 13.572967 14.696333 13.627728 14.696333 C 13.682498 14.696333 13.726888 14.651918 13.726888 14.597136 L 13.726888 14.279705 Z M 14.173693 15.161367 C 14.135588 15.12326 14.073825 15.12326 14.03572 15.161367 L 13.814941 15.382221 C 13.776846 15.420336 13.776846 15.48213 13.814941 15.520243 C 13.853047 15.558357 13.914819 15.558357 13.952914 15.520243 L 14.173693 15.299452 C 14.192004 15.281143 14.202289 15.256308 14.202289 15.230412 C 14.202289 15.204512 14.192004 15.179676 14.173693 15.161367 Z M 14.20286 15.7875 C 14.148099 15.7875 14.103699 15.831911 14.103699 15.886698 C 14.103699 15.941481 14.148099 15.985895 14.20286 15.985895 C 14.25763 15.985895 14.302021 15.941481 14.302021 15.886698 C 14.302021 15.831911 14.25763 15.7875 14.20286 15.7875 Z"/>
    <path id="Kaffeetasse" fill="#000000" fill-rule="evenodd" stroke="none" d="M 14.24 9.860418 L 14.301393 9.614849 C 14.311944 9.56686 14.354576 9.532755 14.403712 9.532993 L 17.555174 9.532993 C 17.604294 9.532801 17.6469 9.566887 17.657495 9.614849 C 17.681847 9.71183 17.718887 9.860418 17.718887 9.860418 L 14.24 9.860418 Z M 14.594704 9.123713 C 14.612845 9.028708 14.69593 8.959993 14.792651 8.959999 L 17.166153 8.959999 C 17.262903 8.959997 17.346025 9.028694 17.364246 9.123713 C 17.393919 9.266552 17.43239 9.451138 17.43239 9.451138 L 14.526497 9.451138 Z M 17.248215 12.889097 C 17.200125 13.472937 17.168404 13.967674 17.152647 14.157089 C 17.152821 14.180193 17.143278 14.202305 17.126347 14.218021 C 17.109413 14.23374 17.086653 14.241615 17.063629 14.239723 L 14.895198 14.239723 C 14.872182 14.24157 14.849448 14.233679 14.832527 14.21797 C 14.815605 14.202263 14.806047 14.180178 14.806178 14.157089 C 14.790483 13.967674 14.758845 13.472937 14.710673 12.889097 L 17.248215 12.889097 Z M 14.465104 10.024132 L 17.493782 10.024132 C 17.493782 10.024132 17.462267 10.47827 17.411926 11.088261 L 14.546961 11.088261 C 14.496618 10.47827 14.465104 10.024132 14.465104 10.024132 Z M 14.465104 11.170116 L 14.608353 12.807241 L 17.350534 12.807241 L 17.493782 11.170116 L 14.465104 11.170116 Z"/>
    <path id="Eiscreme" fill="#000000" fill-rule="evenodd" stroke="none" d="M 20.32 15.199913 C 20.31999 15.27099 20.300129 15.340654 20.262657 15.401054 L 17.862194 15.401054 C 17.765347 15.288958 17.734713 15.134132 17.781578 14.993601 C 17.828444 14.853071 17.945873 14.747622 18.090616 14.716093 C 18.019112 14.638737 17.979412 14.537258 17.979441 14.431917 C 17.979441 14.199688 18.170946 13.967279 18.509724 13.828491 C 18.93395 13.654778 18.985149 13.359795 18.985149 13.04221 C 19.440992 13.309435 19.789717 13.603029 19.789717 13.95649 C 19.789738 14.024103 19.77903 14.091291 19.757992 14.155548 C 19.892633 14.193445 19.99955 14.295925 20.043118 14.428841 C 20.086685 14.561756 20.061178 14.707642 19.975096 14.817888 C 20.171021 14.83794 20.320011 15.002966 20.32 15.199913 Z M 20.070766 15.913052 L 18.009247 15.913052 C 17.969328 15.715147 17.942869 15.58391 17.942869 15.58391 L 20.137144 15.58391 C 20.137144 15.58391 20.110685 15.715147 20.070766 15.913052 Z M 19.610737 17.650002 C 19.60145 17.715025 19.544493 17.762489 19.478861 17.759899 L 18.601152 17.759899 C 18.535521 17.762489 18.478563 17.715025 18.469276 17.650002 C 18.408476 17.348509 18.236755 16.497093 18.133717 15.986195 L 19.946297 15.986195 C 19.843258 16.497093 19.671537 17.348473 19.610737 17.650002 Z"/>
</svg>
